---
title: "Avconv Error when trying to stream on twitch.tv"
date: 2013-02-10
forum: Multimedia Software
---

### Post by EpicMinerBackup on 2013-02-10
Please help ime using this code 
```
 #! /bin/bash
 
# originaly from http://tinyurl.com/twitch-linux from taladan
# www.youtube.com/user/taladan
 
# gist created by brodul
 
INRES="1366x768" # input resolution
#OUTRES="1024x640" # Output resolution
OUTRES="1024x640" # Output resolution
FPS="30" # target FPS
QUAL="medium" # one of the many FFMPEG preset on (k)ubuntu found in /usr/share/ffmpeg
# If you have low bandwidth, put the qual preset on 'fast' (upload bandwidth)
# If you have medium bandwitch put it on normal to medium
 
# Write your key in a file named .twitch_key in your home directory
STREAM_KEY=$(cat ~/.[COLOR=DarkOrchid]twitch_key[/COLOR]) # This is your streamkey generated by jtv/twitch found at: http://www.justin.tv/broadcast/adv_other
 
avconv \
-f x11grab -s $INRES -r "$FPS" -i :0.0 \
-f alsa -ac 2 -i pulse \
-vcodec libx264 -s $OUTRES -preset $QUAL \
-acodec libmp3lame -ar 44100 -threads 2 -qscale 3 -b 2000000 -bufsize 512k \
-f flv "rtmp://live.justin.tv/app/$STREAM_KEY" 
```And to launch that
```
 ls
 sh twitch.sh 
```I get this after that ```
 avconv version 0.8.5-4:0.8.5-0ubuntu0.12.04.1, Copyright (c) 2000-2012 the Libav developers
  built on Jan 24 2013 18:01:36 with gcc 4.6.3
[x11grab @ 0x20229c0] device: :0.0 -> display: :0.0 x: 0 y: 0 width: 1366 height: 768
[x11grab @ 0x20229c0] shared memory extension  found
[x11grab @ 0x20229c0] Estimating duration from bitrate, this may be inaccurate
Input #0, x11grab, from ':0.0':
  Duration: N/A, start: 1360497162.063207, bitrate: 1007124 kb/s
    Stream #0.0: Video: rawvideo, bgra, 1366x768, 1007124 kb/s, 30 tbr, 1000k tbn, 30 tbc
[alsa @ 0x202efc0] capture with some ALSA plugins, especially dsnoop, may hang.
[alsa @ 0x202efc0] Estimating duration from bitrate, this may be inaccurate
Input #1, alsa, from 'pulse':
  Duration: N/A, start: 1360497162.111112, bitrate: N/A
    Stream #1.0: Audio: pcm_s16le, 48000 Hz, 2 channels, s16, 1536 kb/s
Unrecognized option 'preset'
Failed to set value 'medium' for option 'preset'
 
``` yes i have [COLOR=DarkOrchid]twitch_key [COLOR=Black]file in place[/COLOR][/COLOR]
[SIZE=3][COLOR=Red]Im still new to these codes 
[/COLOR][/SIZE]

---

### Post by kreppnar on 2013-06-06
install libavcodec-extra-53.
You also may need to install "lame" in order to get sound to work, if you haven't already installed it.

-Kreppnar-

[http://orkultus.wordpress.com](http://orkultus.wordpress.com)

---

